# xmcd
#
# Track frame offsets: 
#        150
#        10052
#        27038
#        38658
#        51218
#        60764
#        71429
#        82929
#        92367
#        102490
#
# Disc length: 1532 seconds
#
# Revision: 1
# Processed by: cddbd v1.5.2PL0 Copyright (c) Steve Scherf et al.
# Submitted via: ExactAudioCopy v1.1
#
DISCID=6505fa0a
DTITLE=Ralph Stanley and Jimmy Martin - R. Stanley and J. Martin_First Tim
DTITLE=e Together
DYEAR=2004
DGENRE=Bluegrass
TTITLE0=I'm Going Down The Road
TTITLE1=In The Pines
TTITLE2=I'm Coming Back But I Don't Know When
TTITLE3=Rabbit In The Log
TTITLE4=Footprints In The Snow
TTITLE5=Roll On Buddy, Roll On
TTITLE6=Old Cross Road
TTITLE7=God Gave You To Me
TTITLE8=Sunny Side Of The Mountain
TTITLE9=Don't Let Your Sweet Love Die
EXTD=
EXTT0=
EXTT1=
EXTT2=
EXTT3=
EXTT4=
EXTT5=
EXTT6=
EXTT7=
EXTT8=
EXTT9=
PLAYORDER=
